<svg version="1.1" xmlns="http://www.w3.org/2000/svg" viewBox="0 0 1066.6667 800">
  <g>
    <path
       d="m 0,0 v 6.599 h 3.636 c 1.616,0 3.097,0.223 4.444,0.673 1.347,0.449 2.445,1.301 3.3,2.559 0.852,1.256 1.279,3.007 1.279,5.252 v 65.721 c 0,2.424 -0.427,4.263 -1.279,5.521 -0.855,1.257 -1.953,2.109 -3.3,2.559 -1.347,0.448 -2.828,0.674 -4.444,0.674 H 0 v 6.598 h 43.769 v -6.598 h -3.771 c -1.707,0 -3.232,-0.248 -4.579,-0.742 -1.347,-0.494 -2.424,-1.346 -3.232,-2.558 -0.808,-1.212 -1.212,-3.03 -1.212,-5.454 V 15.218 c 0,-2.245 0.404,-3.996 1.212,-5.252 0.808,-1.259 1.907,-2.134 3.299,-2.626 1.391,-0.495 2.896,-0.741 4.512,-0.741 h 3.771 V 0 Z m -72.048,39.459 h 28.416 l -8.08,24.376 c -0.72,2.334 -1.437,4.579 -2.155,6.733 -0.72,2.156 -1.393,4.264 -2.02,6.33 -0.63,2.065 -1.168,4.175 -1.616,6.33 -0.45,-2.067 -0.966,-4.086 -1.549,-6.06 -0.585,-1.977 -1.191,-3.974 -1.818,-5.993 -0.629,-2.021 -1.393,-4.198 -2.289,-6.532 z M -102.888,0 v 6.599 h 1.885 c 1.705,0 3.142,0.246 4.31,0.741 1.166,0.492 2.243,1.481 3.232,2.963 0.987,1.481 2.021,3.612 3.098,6.396 l 29.358,79.457 h 15.622 l 29.36,-81.746 c 0.716,-1.975 1.525,-3.524 2.423,-4.646 0.897,-1.124 1.974,-1.932 3.233,-2.424 1.256,-0.495 2.737,-0.741 4.443,-0.741 h 1.616 V 0 h -41.613 v 6.599 h 3.905 c 2.244,0 3.995,0.425 5.252,1.279 1.257,0.852 1.886,2.31 1.886,4.377 0,0.627 -0.047,1.257 -0.135,1.886 -0.091,0.627 -0.225,1.255 -0.404,1.885 -0.181,0.627 -0.404,1.212 -0.673,1.75 l -4.983,14.007 h -33.668 l -4.445,-12.525 c -0.18,-0.719 -0.382,-1.504 -0.606,-2.357 -0.225,-0.854 -0.403,-1.662 -0.538,-2.423 -0.135,-0.764 -0.202,-1.461 -0.202,-2.088 0,-1.976 0.606,-3.434 1.818,-4.377 1.212,-0.943 3.074,-1.414 5.589,-1.414 h 4.444 V 0 Z"
       style="fill:#ffffff;fill-opacity:1;fill-rule:nonzero;stroke:none"
       transform="matrix(1.3333333,0,0,-1.3333333,820.30467,611.15227)" />
    <path
       d="m 0,0 c -4.829,-1.805 -11.076,-1.064 -16.101,-1.494 -5.235,-0.449 -36.619,-4.57 -47.036,-6.258 -62.806,-10.176 -131.981,-27.05 -181.219,-69.991 -16.899,-15.433 -31.066,-32.563 -40.422,-53.641 -8.709,-19.626 -19.685,-52.133 -4.43,-71.162 6.614,-8.246 18.354,-7.623 25.823,-0.612 2.527,2.37 4.896,7.855 8.702,5.884 4.469,-2.312 2.306,-7.342 0.207,-10.178 -11.967,-16.143 -38.132,-16.229 -48.239,1.402 -11.063,19.288 -8.483,39.423 0.412,65.706 7.69,22.722 21.69,42.975 35.125,57.006 31.501,32.911 75.569,53.53 118.361,66.831 37.394,11.618 75.695,17.395 114.18,24.328 -17.046,1.835 -33.997,3.802 -50.685,7.94 -26.703,6.625 -58.052,18.645 -82.793,30.598 -45.342,21.902 -82.657,47.91 -121.436,79.848 4.294,-11.777 9.47,-32.943 14.146,-72.096 3.984,6.764 12.164,11.676 10.394,4.191 -2.135,-9.029 -6.146,-16.01 -6.623,-25.658 -1.172,-23.905 3.249,-45.427 -0.29,-69.363 -3.239,-21.965 -9.659,-48.953 -26.469,-66.644 -8.73,-9.189 -28.628,-6.863 -28.628,10.901 0,50.423 41.355,106.359 41.414,117.006 -0.671,21.199 -1.479,43.096 -4.419,64.069 -1.609,11.435 -4.491,31.02 -8.389,39.694 -3.342,7.436 -6.281,8.814 -6.616,9.073 -6.211,4.801 -9.058,13.313 -1.746,13.531 6.961,0.208 7.545,-3.843 16.131,-12.751 10.136,-9.162 20.893,-17.68 31.934,-25.699 34.716,-25.217 73.085,-45.302 113.084,-60.722 39.055,-15.053 79.265,-25.191 120.552,-31.683 7.276,-1.142 15.599,-1.145 22.61,-3.014 C 4.95,15.068 8.472,3.171 0,0 m -310.091,-60.44 c -6.13,-25.339 -6.709,-39.384 -6.706,-39.345 22.876,14.221 27.355,77.146 25.139,90.603 -7.046,-13.899 -13.841,-32.279 -18.433,-51.258 m 323.078,-94.023 c -2.62,2.285 -17.397,-7.787 -20.276,-9.69 -9.29,-6.143 -34.843,-24.616 -36.593,-35.494 -0.756,-4.701 -0.325,-12.459 5.603,-13.269 14.53,-1.983 28.668,19.931 35.647,30.45 1.692,2.549 16.915,26.874 15.619,28.003 m 144.203,57.67 c 14.759,3.122 32.166,12.023 40.836,24.795 2.664,3.924 9.118,15.628 1.232,16.875 -13.219,2.091 -29.62,-17.495 -36.017,-27.622 -2.638,-4.177 -5.925,-8.964 -6.051,-14.048 m -287.075,42.301 c -18.399,-2.897 -38.24,-26.662 -46.492,-42.288 -3.855,-7.299 -13.828,-29.339 1.493,-28.866 19.337,0.598 37.224,30.156 46.271,44.846 5.073,8.237 20.647,29.76 -1.272,26.308 m 246.852,-8.918 c 0.748,-0.88 4.331,3.143 4.939,3.779 17.825,18.639 44.018,54.682 53.625,78.405 1.423,3.512 6.63,14.277 -1.693,11.559 -5.098,-1.666 -13.811,-14.667 -16.968,-19.458 -10.6,-16.088 -21.249,-35.393 -30.172,-52.535 -2.644,-5.081 -7.401,-13.129 -9.142,-18.173 -0.418,-1.211 -0.809,-2.254 -0.589,-3.577 m 97.543,-39.217 c 2.093,2.041 10.767,12.707 12.232,13.188 0.581,0.191 1.179,0.16 1.773,0.112 1.575,-3.124 -1.218,-5.537 -3.069,-7.891 -14.968,-19.033 -49.399,-48.527 -75.496,-36.122 -7.453,3.543 -10.182,9.628 -11.437,17.35 -0.392,2.407 0.804,5.341 -1.237,7.055 -11.279,-10.349 -28.398,-33.176 -46.174,-26.719 -11.428,4.15 -10.848,17.638 -9.188,27.483 l -1.788,-0.11 c -6.195,-5.433 -12.365,-10.978 -18.903,-16.011 -6.966,-5.362 -21.213,-13.073 -26.28,-18.527 -7.313,-7.871 -15.933,-28.266 -23.414,-38.689 -11.203,-15.611 -34.509,-40.307 -55.914,-37.379 -5.605,0.766 -11.884,5.983 -12.597,11.682 -2.447,19.568 31.687,41.836 46.759,50.181 6.23,3.45 23.22,9.998 27.277,13.774 1.399,1.302 2.594,3.812 3.558,5.532 3.094,5.519 5.041,11.825 7.853,17.489 L 9.364,-131.891 c -10.744,-4.671 -26.214,-4.723 -27.031,10.044 -0.197,3.563 1.712,7.208 0.707,10.662 -9.604,-9.013 -24.911,-23.761 -38.918,-24.151 -18.1,-0.503 -10.146,22.195 -5.646,31.962 3.704,8.039 18.294,28.897 17.438,36.207 -0.539,4.602 -6.736,9.155 -11.111,6.529 -9.91,-13.904 -19.898,-27.884 -31.612,-40.389 -9.354,-9.986 -35.506,-34.978 -49.267,-35.019 -6.809,-0.021 -10.648,5.472 -11.074,11.693 -0.296,4.333 1.574,7.491 1.523,11.661 -1.319,0.336 -1.527,-0.536 -2.294,-1.12 -7.391,-5.636 -12.985,-11.871 -21.626,-16.337 -22.555,-11.659 -39.484,-3.845 -31.443,22.744 6.253,20.676 29.056,43.347 48.744,52.125 10.999,4.904 30.865,12.426 38.31,-0.871 3.406,3.273 7.925,8.709 13.116,8.789 3.293,0.051 7.064,-2.139 5.236,-5.809 -8.363,-15.292 -19.137,-29.27 -27.264,-44.692 -2.882,-5.47 -15.664,-29.044 -0.425,-25.965 13.881,2.805 46.329,40.284 54.32,52.657 1.532,2.373 7.174,11.802 7.314,13.933 0.211,3.23 -3.965,6.356 -2.978,13.445 0.809,5.809 8.39,15.568 14.831,15.539 10.614,-0.047 1.665,-16.712 1.183,-20.83 -1.361,-11.638 17.036,-7.604 19.989,-14.812 3.903,-9.528 -11.494,-29.928 -15.859,-38.974 -17.256,-35.759 9.544,-17.445 23.321,-4.93 15.247,13.85 19.234,28.221 28.873,45.359 4.404,7.83 7.162,16.547 17.901,14.391 7.211,-1.448 3.892,-7.342 1.736,-11.917 -6.816,-14.464 -25.728,-38.75 -28.489,-53.276 -3.271,-17.208 10.891,-12.696 20.234,-6.405 11.928,8.032 19.913,20.742 27.058,32.831 4.538,7.678 16.361,33.777 22.509,37.323 5.364,3.093 14.209,1.938 11.123,-5.711 -10.214,-21.538 -23.333,-41.788 -33.654,-63.243 -1.315,-2.734 -4.725,-9.42 -4.718,-11.938 0.003,-1.173 -0.184,-1.309 1.161,-1.135 12.263,9.345 25.551,18.687 36.302,29.74 10.021,10.303 11.728,21.885 17.405,34.823 13.087,29.825 45.23,89.786 74.189,105.388 16.907,9.109 20.742,-1.107 14.652,-15.969 -15.537,-37.916 -49.178,-70.049 -74.59,-101.224 -7.652,-9.388 -15.175,-27.107 -13.007,-39.241 3.168,-17.732 23.85,-0.055 30.209,5.682 10.703,9.654 9.693,10.401 15.125,22.754 7.711,17.533 38.86,44.317 59.247,41.624 7.632,-1.009 10.385,-7.482 9.407,-14.433 -3.169,-22.512 -38.41,-33.256 -55.945,-41.996 -4.437,-9.753 3.1,-21.04 13.736,-21.909 17.129,-1.4 33.85,12.587 45.198,23.655"
       style="fill:#ffffff;fill-opacity:1;fill-rule:nonzero;stroke:none"
       transform="matrix(1.3333333,0,0,-1.3333333,597.13267,255.94293)" />
  </g>
</svg>