<svg xmlns="http://www.w3.org/2000/svg" viewBox="0 0 547.98 93.69"><defs><style>.cls-1{fill:#e74d14;}.cls-2{fill:#1d3056;}</style></defs><g id="Layer_2" data-name="Layer 2"><g id="Layer_1-2" data-name="Layer 1"><path class="cls-1" d="M154.18,25.11c-1.6-5.2-5.54-8.32-10.93-8.32C136.56,16.79,132,22,132,28.65c0,6.37,4.47,11.81,11.27,11.81,5.36,0,9.3-3.07,11-8.45l7.59,2.35c-2.29,8-9.81,13.4-18.55,13.4a19.13,19.13,0,1,1,0-38.25c8.45,0,15.91,4.64,18.47,13.14Z"></path><path class="cls-1" d="M166.68,9.54h8V47.76h-8Z"></path><path class="cls-1" d="M213,9.54v7.38H200.45V47.76h-8V16.92H179.9V9.54Z"></path><path class="cls-2" d="M285.59,24.15a14.61,14.61,0,0,0-28.52,4.47,14.23,14.23,0,0,0,14.55,14.64,14,14,0,0,0,14-10.34l4.56,1.41c-2.35,8-9.65,13.43-18.56,13.43-10.87,0-19.38-8.21-19.38-19.14s8.37-19.11,19.38-19.11c8.75,0,16,5.15,18.45,13.17Z"></path><path class="cls-2" d="M326.43,9.51V47.76h-4.78V29.08H300.52V47.76h-4.77V9.51h4.77V24.63h21.13V9.51Z"></path><path class="cls-2" d="M358.52,39.93H339l-3.15,7.83h-5L346.44,9.54h4.67L366.7,47.76h-5ZM340.74,35.5h16l-8-20.07Z"></path><path class="cls-2" d="M371.05,47.76V9.51h2.53l25.21,29.22V9.51h4.75V47.76H401L375.82,18.52V47.76Z"></path><path class="cls-2" d="M439,18.1A14.4,14.4,0,0,0,428.73,14a14.25,14.25,0,0,0-14.58,14.66,14.24,14.24,0,0,0,14.58,14.64c8,0,14.1-5.79,14.39-14.16H428.2V24.63h19.29a17.55,17.55,0,0,1,.43,4,18.81,18.81,0,0,1-19.19,19.14c-10.85,0-19.38-8.18-19.38-19.14,0-10.79,8.37-19.11,19.38-19.11a19.12,19.12,0,0,1,13.25,5Z"></path><path class="cls-2" d="M479,9.51V14H458.4V24.57h16.18V29H458.4V43.34H479v4.42h-25.3V9.51Z"></path><path class="cls-2" d="M485.16,47.76V9.54h17a12.15,12.15,0,0,1,5.76,1.12,10.1,10.1,0,0,1,5.87,9.43,10.55,10.55,0,0,1-1.95,6.22,10,10,0,0,1-4.59,3.49,14.53,14.53,0,0,1-2.37.64l10.66,17.32H510L499.68,30.62H489.9V47.76Zm16.5-21.53a8.91,8.91,0,0,0,3.7-.56,6,6,0,0,0,0-11.09,8.74,8.74,0,0,0-3.7-.56H489.9V26.23Z"></path><path class="cls-2" d="M521.89,37.37a17.19,17.19,0,0,0,12.42,5.91c5.44,0,9-3.11,9-7,0-4.79-5.41-5.89-11.14-7.09-6.21-1.28-12.42-3-12.42-9.57,0-5.62,4.69-10.07,12.58-10.1A19.44,19.44,0,0,1,545.64,15l-3,3.3a14.88,14.88,0,0,0-10.45-4.39c-4.77,0-7.84,2.34-7.84,5.43,0,3.55,3.87,4.43,10,5.58C539.93,26,548,27.85,548,36.35c0,6.43-5.62,11.41-13.64,11.41A21.67,21.67,0,0,1,518.8,40.7Z"></path><path class="cls-2" d="M142.92,87.7,134,64.4h-.15q.25,2.77.26,6.58V87.7h-2.83V61.42h4.6l8.33,21.68h.14l8.4-21.68h4.57V87.7h-3.06V70.76q0-2.91.25-6.32h-.14l-9,23.26Z"></path><path class="cls-2" d="M192.51,74.52q0,6.32-3.2,9.93t-8.87,3.61q-5.81,0-9-3.55t-3.16-10q0-6.42,3.17-9.95t9-3.54q5.66,0,8.84,3.6T192.51,74.52Zm-20.95,0q0,5.34,2.27,8.1a9.3,9.3,0,0,0,13.21,0c1.49-1.83,2.23-4.54,2.23-8.11s-.74-6.22-2.22-8-3.67-2.74-6.57-2.74a8.13,8.13,0,0,0-6.65,2.76Q171.57,69.26,171.56,74.52Z"></path><path class="cls-2" d="M218.54,61.42h3.29L212.35,87.7h-3l-9.42-26.28h3.23l6.05,17a49.84,49.84,0,0,1,1.65,5.7,46.48,46.48,0,0,1,1.69-5.8Z"></path><path class="cls-2" d="M245.25,87.7H230.59V61.42h14.66v2.71h-11.6V72.6h10.9v2.7h-10.9V85h11.6Z"></path><path class="cls-2" d="M267.86,87.7l-8.92-23.3h-.14q.26,2.77.25,6.58V87.7h-2.82V61.42h4.6l8.32,21.68h.15l8.39-21.68h4.57V87.7H279.2V70.76q0-2.91.26-6.32h-.15l-9,23.26Z"></path><path class="cls-2" d="M309.28,87.7H294.63V61.42h14.65v2.71h-11.6V72.6h10.9v2.7h-10.9V85h11.6Z"></path><path class="cls-2" d="M340.79,87.7H337.3L322.94,65.64h-.15c.2,2.59.29,5,.29,7.12V87.7h-2.82V61.42h3.45l14.33,22h.14c0-.33-.07-1.37-.16-3.12s-.11-3-.09-3.77V61.42h2.86Z"></path><path class="cls-2" d="M361.26,87.7h-3.05V64.13h-8.33V61.42h19.71v2.71h-8.33Z"></path><path class="cls-2" d="M24.81,1.27A.64.64,0,0,0,24.57,0Q13.35,0,2.14,0C.33,0,0,.55,0,2.16q0,8.72,0,17.42A.65.65,0,0,0,1.21,20,56,56,0,0,1,24.81,1.27Z"></path><path class="cls-2" d="M24.71,87.43a.72.72,0,0,1,.54-1.26A46.11,46.11,0,0,0,44.59,84c20-6.41,34.93-23.32,33.33-37.79s-19.12-21-39.13-14.57l-.54.18a.61.61,0,0,1-.54-1.09,54.68,54.68,0,0,1,14.4-7.13c22-7,41.53,2.62,43.62,21.6s-14,40.07-36,47.11l-.27.09a.64.64,0,0,0,.19,1.26h10a31.48,31.48,0,0,0,5.75-.42c13.37-2.49,21.84-12.45,21.84-25.59V26.22a34.87,34.87,0,0,0-.3-4.67C95.39,9.83,84.58.2,72.3.12Q66,.08,59.73.06a.63.63,0,0,0-.3,1.19,26.8,26.8,0,0,1,4.78,3.32.69.69,0,0,1-.53,1.21A46.22,46.22,0,0,0,44.28,8c-20,6.41-34.94,23.33-33.34,37.79s19.12,21,39.13,14.58h0a.7.7,0,0,1,.6,1.24,54.52,54.52,0,0,1-13.92,6.8C21.82,73.15,8,70.22.05,61.92c0,0,0,0,0,0q0,14.82,0,29.65c0,1.7.51,2.12,2.23,2.12q15.31,0,30.65,0a.65.65,0,0,0,.24-1.26A27.9,27.9,0,0,1,24.71,87.43Z"></path><polygon class="cls-1" points="223.83 9.56 214.66 9.56 228.49 33.26 228.49 47.76 236.46 47.76 236.46 33.26 236.54 33.13 232.43 25.14 223.83 9.56"></polygon><polygon class="cls-1" points="250.27 9.56 241.1 9.56 235.03 20.57 239.16 28.64 250.27 9.56"></polygon></g></g></svg>