<svg version="1.1" xmlns="http://www.w3.org/2000/svg" viewBox="0 0 1066.6667 800" preserveAspectRatio="xMidYMid meet">
  <g>
    <path
       d="m 389.9124,453.48027 c 0,30.35059 -24.61329,55.00001 -54.92579,55.00001 -30.31242,0 -54.92572,-24.64942 -54.92572,-55.00001 0,-30.35067 24.61322,-55.00009 54.92572,-55.00009 30.3125,0 54.92579,24.64942 54.92579,55.00009"
       style="fill:#285E39;fill-opacity:1;fill-rule:nonzero;stroke:none"
       transform="matrix(1.3333333,0,0,-1.3333333,0,800)" />
    <path
       d="m 579.92969,453.48027 c 0,30.35059 -24.61328,55.00001 -54.92578,55.00001 -30.31242,0 -54.92572,-24.64942 -54.92572,-55.00001 0,-30.35067 24.6133,-55.00009 54.92572,-55.00009 30.3125,0 54.92578,24.64942 54.92578,55.00009"
       style="fill:#285E39;fill-opacity:1;fill-rule:nonzero;stroke:none"
       transform="matrix(1.3333333,0,0,-1.3333333,0,800)" />
    <path
       d="M 658.997,101.029 H 120.828 v 5 h 538.169 z"
       style="fill:#285E39;fill-opacity:1;fill-rule:nonzero;stroke:none"
       transform="matrix(1.3333333,0,0,-1.3333333,0,800)" />
    <path
       d="m 484.91797,453.48027 c 0,30.35059 -24.61329,55.00001 -54.92579,55.00001 -30.31242,0 -54.92578,-24.64942 -54.92578,-55.00001 0,-30.35067 24.61328,-55.00009 54.92578,-55.00009 30.3125,0 54.92579,24.64942 54.92579,55.00009"
       style="fill:#285E39;fill-opacity:1;fill-rule:nonzero;stroke:none"
       transform="matrix(1.3333333,0,0,-1.3333333,876.8952,708.1444)" />
  </g>
</svg>