<svg width="112" height="112" viewBox="0 0 112 112" fill="none" xmlns="http://www.w3.org/2000/svg">
<g clip-path="url(#clip0_85_5)">
<rect width="112" height="112" rx="56" fill="url(#paint0_linear_85_5)"/>
<g filter="url(#filter0_f_85_5)">
<rect width="112" height="112" rx="56" fill="#B19FF0" fill-opacity="0.3"/>
</g>
<g filter="url(#filter1_f_85_5)">
<rect x="13.6795" y="24.6077" width="40" height="24" rx="12" transform="rotate(-30 13.6795 24.6077)" fill="white" fill-opacity="0.4"/>
</g>
<g filter="url(#filter2_f_85_5)">
<rect x="70.7011" y="82.0101" width="32" height="16" rx="8" transform="rotate(20 70.7011 82.0101)" fill="#B19FF0" fill-opacity="0.4"/>
</g>
<path d="M21.8507 62.4974C20.0965 69.7502 19.9305 73.7687 19.9305 73.7572C26.4783 69.6872 27.7575 51.6755 27.125 47.8258C25.1075 51.8043 23.1643 57.065 21.8507 62.4974ZM110.592 45.1983C109.21 45.7164 107.421 45.5017 105.985 45.6248C104.485 45.7536 95.5048 46.9328 92.5228 47.4165C74.5479 50.3302 54.7528 55.1587 40.6613 67.449C35.8249 71.8653 31.7697 76.7682 29.094 82.8017C26.6013 88.4202 23.4591 97.7223 27.8262 103.169C29.7178 105.53 33.0776 105.35 35.2153 103.344C35.9394 102.665 36.6176 101.094 37.7051 101.661C38.9843 102.322 38.3662 103.762 37.7652 104.574C34.3396 109.194 26.8532 109.22 23.9599 104.174C20.7947 98.6525 21.5331 92.8909 24.0772 85.3663C26.2779 78.8634 30.2845 73.0646 34.1279 69.0489C43.1425 59.6295 55.7545 53.7276 68.0001 49.9209C78.7004 46.5951 89.6639 44.9436 100.676 42.9572C95.7967 42.4306 90.946 41.8696 86.1697 40.6847C78.5287 38.7899 69.5569 35.3467 62.4768 31.9264C49.5014 25.6582 38.8212 18.2136 27.7232 9.07182C28.9509 12.4435 30.4333 18.4999 31.7726 29.7082C32.9116 27.7733 35.2525 26.3651 34.746 28.5089C34.1336 31.0935 32.986 33.0913 32.8515 35.8533C32.5167 42.6939 33.7816 48.8562 32.7685 55.7054C31.8413 61.9908 30.004 69.7158 25.1933 74.779C22.695 77.4094 17 76.7425 17 71.6592C17 57.2281 28.8364 41.217 28.8507 38.1688C28.659 32.101 28.4272 25.8328 27.5858 19.8308C27.125 16.5564 26.3008 10.9523 25.1847 8.47076C24.2289 6.34129 23.3875 5.94917 23.2902 5.87476C21.5216 4.50377 20.706 2.06805 22.798 2.00222C24.7898 1.94211 24.9558 3.1013 27.4141 5.65151C30.3159 8.27327 33.3924 10.7119 36.5518 13.0073C46.488 20.2258 57.4687 25.973 68.913 30.3865C80.0883 34.6941 91.5956 37.5964 103.412 39.4539C105.495 39.7802 107.876 39.7831 109.883 40.3154C112.006 40.8793 113.013 44.2853 110.589 45.1926" fill="#152645"/>
<path d="M56 83.9977V82.4879H56.423C56.8078 82.4879 57.1296 82.4307 57.3928 82.3186C57.6561 82.2065 57.8968 81.98 58.1196 81.6415C58.3424 81.3029 58.5741 80.8156 58.8171 80.1774L65.4234 62H68.9381L75.5444 80.7013C75.7064 81.1542 75.8887 81.5065 76.0889 81.765C76.2914 82.0212 76.5322 82.2065 76.8157 82.3186C77.0992 82.433 77.4322 82.4879 77.8147 82.4879H78.1793V83.9977H68.8166V82.4879H69.6964C70.2004 82.4879 70.5942 82.3895 70.8777 82.1951C71.1612 82.0006 71.3029 81.6666 71.3029 81.1931C71.3029 81.049 71.2917 80.9049 71.2737 80.7607C71.2534 80.6166 71.2219 80.4725 71.1837 80.3284C71.1432 80.1843 71.0937 80.0516 71.0329 79.928L69.9124 76.7231H62.3363L61.3372 79.5895C61.2967 79.7542 61.2517 79.9326 61.2 80.1294C61.1505 80.3238 61.11 80.5091 61.0785 80.683C61.0492 80.8568 61.0335 81.0169 61.0335 81.1611C61.0335 81.614 61.1707 81.9457 61.443 82.163C61.7153 82.3781 62.1338 82.4856 62.7008 82.4856H63.6999V83.9954H56.0022L56 83.9977ZM62.9393 74.9708H69.3341L67.516 69.3936C67.354 68.8606 67.192 68.3458 67.03 67.854C66.868 67.3599 66.7172 66.8795 66.5755 66.4059C66.4337 65.9347 66.3122 65.452 66.211 64.9579C66.1097 65.4314 65.9927 65.8935 65.8622 66.3442C65.7317 66.7971 65.5944 67.2524 65.4527 67.7145C65.3109 68.1766 65.1399 68.6753 64.9374 69.2083L62.9371 74.9685L62.9393 74.9708ZM79.1513 83.9977V82.4879H79.9703C80.3349 82.4879 80.6679 82.4376 80.9694 82.3346C81.2732 82.2317 81.5207 82.0372 81.7119 81.749C81.9032 81.4607 81.9999 81.0604 81.9999 80.548V65.5138C81.9999 64.9602 81.9032 64.5393 81.7119 64.251C81.5207 63.9628 81.2732 63.7683 80.9694 63.6654C80.6656 63.5624 80.3326 63.5121 79.9703 63.5121H79.1513V62.0023H89V63.5121H88.1517C87.767 63.5121 87.4249 63.5693 87.1212 63.6814C86.8174 63.7935 86.5767 63.9902 86.3944 64.267C86.2121 64.5438 86.1221 64.9602 86.1221 65.5138V80.5182C86.1221 81.033 86.2121 81.4333 86.3944 81.7192C86.5767 82.0075 86.8242 82.2065 87.1369 82.3209C87.4497 82.4353 87.7895 82.4902 88.1517 82.4902H89V84H79.1513V83.9977Z" fill="#152645"/>
</g>
<defs>
<filter id="filter0_f_85_5" x="-80" y="-80" width="272" height="272" filterUnits="userSpaceOnUse" color-interpolation-filters="sRGB">
<feFlood flood-opacity="0" result="BackgroundImageFix"/>
<feBlend mode="normal" in="SourceGraphic" in2="BackgroundImageFix" result="shape"/>
<feGaussianBlur stdDeviation="40" result="effect1_foregroundBlur_85_5"/>
</filter>
<filter id="filter1_f_85_5" x="12.0698" y="2.99792" width="49.8604" height="44.004" filterUnits="userSpaceOnUse" color-interpolation-filters="sRGB">
<feFlood flood-opacity="0" result="BackgroundImageFix"/>
<feBlend mode="normal" in="SourceGraphic" in2="BackgroundImageFix" result="shape"/>
<feGaussianBlur stdDeviation="3" result="effect1_foregroundBlur_85_5"/>
</filter>
<filter id="filter2_f_85_5" x="59.4803" y="76.2616" width="47.0394" height="37.4767" filterUnits="userSpaceOnUse" color-interpolation-filters="sRGB">
<feFlood flood-opacity="0" result="BackgroundImageFix"/>
<feBlend mode="normal" in="SourceGraphic" in2="BackgroundImageFix" result="shape"/>
<feGaussianBlur stdDeviation="4" result="effect1_foregroundBlur_85_5"/>
</filter>
<linearGradient id="paint0_linear_85_5" x1="0" y1="0" x2="112" y2="112" gradientUnits="userSpaceOnUse">
<stop stop-color="#B19FF0" stop-opacity="0.6"/>
<stop offset="0.5" stop-color="#5780CB" stop-opacity="0.3"/>
<stop offset="1" stop-color="#1F1825" stop-opacity="0.8"/>
</linearGradient>
<clipPath id="clip0_85_5">
<rect width="112" height="112" rx="56" fill="white"/>
</clipPath>
</defs>
</svg>
