<svg width="867" height="652" viewBox="0 0 867 652" fill="none" xmlns="http://www.w3.org/2000/svg">
<path d="M611 651.984V641.621H613.923C616.581 641.621 618.804 641.229 620.623 640.459C622.442 639.69 624.105 638.136 625.644 635.812C627.184 633.488 628.785 630.144 630.464 625.763L676.107 501H700.39L746.034 629.359C747.153 632.468 748.413 634.886 749.796 636.66C751.195 638.418 752.859 639.69 754.818 640.459C756.776 641.245 759.077 641.621 761.72 641.621H764.239V651.984H699.551V641.621H705.629C709.112 641.621 711.832 640.946 713.791 639.612C715.75 638.277 716.729 635.985 716.729 632.734C716.729 631.745 716.652 630.756 716.527 629.767C716.387 628.778 716.17 627.789 715.905 626.799C715.626 625.81 715.284 624.899 714.864 624.052L707.122 602.054H654.778L647.876 621.728C647.596 622.858 647.285 624.083 646.927 625.433C646.585 626.768 646.305 628.04 646.088 629.233C645.886 630.426 645.777 631.525 645.777 632.515C645.777 635.623 646.725 637.9 648.606 639.392C650.487 640.868 653.379 641.606 657.296 641.606H664.199V651.969H611.016L611 651.984ZM658.944 590.027H703.127L690.565 551.747C689.446 548.088 688.327 544.556 687.207 541.18C686.088 537.788 685.046 534.491 684.067 531.241C683.088 528.006 682.248 524.693 681.549 521.302C680.849 524.552 680.04 527.724 679.139 530.817C678.237 533.926 677.289 537.05 676.309 540.222C675.33 543.394 674.149 546.817 672.749 550.475L658.929 590.011L658.944 590.027ZM770.954 651.984V641.621H776.613C779.132 641.621 781.433 641.276 783.516 640.569C785.615 639.863 787.325 638.528 788.646 636.55C789.967 634.571 790.636 631.824 790.636 628.307V525.117C790.636 521.318 789.967 518.429 788.646 516.45C787.325 514.472 785.615 513.137 783.516 512.431C781.417 511.724 779.116 511.379 776.613 511.379H770.954V501.016H839V511.379H833.139C830.481 511.379 828.118 511.771 826.019 512.54C823.92 513.31 822.257 514.66 820.998 516.56C819.738 518.46 819.116 521.318 819.116 525.117V628.103C819.116 631.635 819.738 634.383 820.998 636.346C822.257 638.324 823.967 639.69 826.128 640.475C828.289 641.26 830.636 641.637 833.139 641.637H839V652H770.954V651.984Z" fill="white"/>
<path d="M844.45 395.728C847.709 392.544 861.244 375.891 863.52 375.142C864.425 374.846 865.36 374.893 866.28 374.971C868.729 379.84 864.378 383.617 861.493 387.285C838.15 416.985 784.463 463.025 743.765 443.657C732.148 438.132 727.891 428.628 725.926 416.579C725.318 412.818 727.173 408.245 723.992 405.576C706.403 421.729 679.708 457.36 651.999 447.278C634.175 440.801 635.08 419.747 637.668 404.39L634.877 404.562C625.225 413.036 615.604 421.698 605.406 429.548C594.538 437.914 572.333 449.947 564.427 458.468C553.029 470.751 539.587 502.589 527.923 518.852C510.459 543.214 474.111 581.764 440.742 577.191C432.01 575.989 422.217 567.858 421.094 558.962C417.274 528.419 470.509 493.662 494.008 480.646C503.723 475.261 530.216 465.039 536.546 459.155C538.73 457.126 540.585 453.209 542.098 450.524C546.916 441.909 549.957 432.061 554.338 423.228L524.555 441.425C507.808 448.714 483.686 448.792 482.407 425.756C482.095 420.2 485.073 414.503 483.514 409.119C468.545 423.181 444.671 446.201 422.825 446.81C394.602 447.59 406.998 412.178 414.015 396.93C419.785 384.382 442.535 351.825 441.21 340.417C440.368 333.237 430.7 326.136 423.886 330.225C408.433 351.919 392.855 373.738 374.596 393.262C360.016 408.853 319.224 447.855 297.768 447.918C287.149 447.949 281.161 439.381 280.506 429.673C280.038 422.915 282.954 417.984 282.876 411.475C280.818 410.945 280.491 412.318 279.305 413.223C267.782 422.026 259.05 431.749 245.577 438.725C210.415 456.923 184.015 444.718 196.552 403.235C206.298 370.96 241.866 335.579 272.554 321.891C289.706 314.244 320.69 302.492 332.291 323.249C337.608 318.145 344.641 309.655 352.749 309.53C357.88 309.452 363.758 312.87 360.92 318.598C347.884 342.461 331.075 364.28 318.413 388.346C313.922 396.883 293.994 433.669 317.743 428.862C339.386 424.476 389.986 365.997 402.445 346.675C404.831 342.976 413.625 328.259 413.844 324.935C414.171 319.893 407.669 315.008 409.197 303.959C410.46 294.891 422.28 279.659 432.322 279.705C448.866 279.783 434.91 305.785 434.162 312.215C432.041 330.381 460.732 324.076 465.332 335.329C471.414 350.202 447.416 382.041 440.602 396.149C413.688 451.96 455.477 423.368 476.965 403.844C500.744 382.228 506.951 359.801 521.982 333.05C528.843 320.83 533.147 307.221 549.894 310.592C561.137 312.855 555.96 322.047 552.607 329.195C541.973 351.763 512.486 389.672 508.182 412.349C503.083 439.209 525.163 432.17 539.727 422.338C558.33 409.805 570.774 389.969 581.923 371.1C589.002 359.114 607.433 318.38 617.023 312.855C625.381 308.032 639.181 309.827 634.363 321.766C618.442 355.384 597.984 386.988 581.891 420.465C579.833 424.726 574.516 435.167 574.532 439.1C574.532 440.926 574.251 441.144 576.34 440.879C595.458 426.287 616.181 411.71 632.944 394.464C648.568 378.389 651.234 360.3 660.076 340.12C680.487 293.58 730.604 199.985 775.762 175.638C802.13 161.42 808.102 177.37 798.606 200.562C774.374 259.744 721.918 309.889 682.296 358.536C670.367 373.191 658.626 400.847 662.009 419.778C666.952 447.45 699.199 419.856 709.116 410.914C725.801 395.853 724.226 394.682 732.693 375.408C744.716 348.049 793.289 306.237 825.083 310.451C836.981 312.028 841.285 322.125 839.756 332.972C834.813 368.104 779.863 384.881 752.528 398.522C745.605 413.738 757.362 431.359 773.953 432.717C800.664 434.902 826.736 413.067 844.434 395.806L844.45 395.728ZM692.354 334.517C693.523 335.891 699.106 329.617 700.057 328.618C727.844 299.526 768.698 243.279 783.668 206.259C785.882 200.781 794.006 183.972 781.032 188.217C773.08 190.823 759.498 211.113 754.571 218.588C738.042 243.7 721.435 273.822 707.526 300.588C703.409 308.516 695.987 321.08 693.274 328.946C692.619 330.834 692.011 332.457 692.354 334.533V334.517ZM307.436 320.596C278.744 325.122 247.807 362.204 234.943 386.598C228.939 397.991 213.377 432.389 237.266 431.655C267.423 430.719 295.304 384.585 309.416 361.658C317.322 348.798 341.616 315.211 307.436 320.596ZM755.07 386.613C778.085 381.744 805.233 367.854 818.752 347.924C822.9 341.806 832.973 323.53 820.67 321.595C800.056 318.333 774.483 348.907 764.504 364.701C760.387 371.225 755.272 378.685 755.07 386.629V386.613ZM530.216 476.619C526.13 473.061 503.083 488.777 498.593 491.742C484.107 501.325 444.266 530.167 441.537 547.132C440.352 554.467 441.038 566.578 450.269 567.842C472.926 570.932 494.975 536.737 505.859 520.319C508.494 516.339 532.227 478.383 530.216 476.619ZM26.4305 329.882C16.8718 369.43 15.9674 391.342 15.9674 391.28C51.6447 369.087 58.6148 270.872 55.1688 249.88C44.1755 271.574 33.5878 300.26 26.4305 329.882ZM509.96 235.553C502.429 238.378 492.683 237.208 484.855 237.879C476.684 238.581 427.753 245.011 411.505 247.649C313.564 263.537 205.706 289.866 128.925 356.882C102.572 380.964 80.4765 407.699 65.8969 440.598C52.3152 471.235 35.1939 521.957 58.9891 551.658C69.2962 564.533 87.6026 563.55 99.2507 552.61C103.196 548.911 106.891 540.343 112.817 543.433C119.787 547.038 116.419 554.888 113.144 559.321C94.4792 584.51 53.6874 584.651 37.9227 557.136C20.6766 527.03 24.6996 495.613 38.562 454.582C50.5532 419.123 72.3836 387.503 93.3253 365.606C142.444 314.244 211.163 282.062 277.886 261.305C336.189 243.169 395.927 234.164 455.93 223.333C429.343 220.461 402.913 217.402 376.888 210.941C335.254 200.609 286.369 181.834 247.792 163.183C177.092 129.004 118.898 88.4102 58.4277 38.5614C65.1172 56.9465 73.1945 89.9709 80.4921 151.088C86.6982 140.538 99.4534 132.859 96.6934 144.549C93.3565 158.642 87.1036 169.535 86.3707 184.596C84.5463 221.897 91.4385 255.499 85.9185 292.847C80.8663 327.12 70.8555 369.243 44.6433 396.852C31.0305 411.195 0 407.558 0 379.84C0 301.149 64.4935 213.844 64.5714 197.222C63.5267 164.135 62.2637 129.956 57.6793 97.2282C55.1688 79.3738 50.6779 48.8152 44.5966 35.284C39.3884 23.6723 34.804 21.5342 34.2739 21.1284C24.6373 13.6526 20.1932 0.371065 31.5918 0.0121034C42.4447 -0.315644 43.3491 6.0052 56.7437 19.911C72.5552 34.2071 89.3179 47.5043 106.533 60.0211C160.672 99.382 220.503 130.721 282.861 154.787C343.752 178.275 406.452 194.101 470.837 204.23C482.189 206.009 495.162 206.025 506.093 208.928C517.663 212.002 523.152 230.575 509.944 235.522" fill="white"/>
</svg>
